<mxfile host="app.diagrams.net" modified="2021-11-15T16:58:03.260Z" agent="5.0 (Windows)" etag="zE-U1jULAggWp5D9WToD" version="15.7.4" type="github">
  <diagram name="Page-1" id="c37626ed-c26b-45fb-9056-f9ebc6bb27b6">
    <mxGraphModel dx="868" dy="479" grid="1" gridSize="10" guides="1" tooltips="1" connect="1" arrows="1" fold="1" page="1" pageScale="1" pageWidth="1100" pageHeight="850" background="none" math="0" shadow="0">
      <root>
        <mxCell id="0" />
        <mxCell id="1" parent="0" />
        <mxCell id="1c7a67bf8fd3230f-83" value="Group 1" style="whiteSpace=wrap;html=1;rounded=0;shadow=0;comic=0;strokeWidth=1;fontFamily=Verdana;fontSize=14;fillColor=#f5f5f5;strokeColor=none;verticalAlign=top;fontStyle=1" parent="1" vertex="1">
          <mxGeometry x="490" y="275" width="1240" height="440" as="geometry" />
        </mxCell>
        <mxCell id="1c7a67bf8fd3230f-37" style="edgeStyle=none;html=1;labelBackgroundColor=none;startFill=0;endArrow=none;endFill=0;strokeWidth=2;fontFamily=Verdana;fontSize=12;" parent="1" edge="1">
          <mxGeometry relative="1" as="geometry">
            <mxPoint x="774" y="366.54838709677415" as="sourcePoint" />
            <mxPoint x="1020" y="500" as="targetPoint" />
          </mxGeometry>
        </mxCell>
        <mxCell id="1c7a67bf8fd3230f-38" style="edgeStyle=none;html=1;labelBackgroundColor=none;startFill=0;endArrow=none;endFill=0;strokeWidth=2;fontFamily=Verdana;fontSize=12;" parent="1" target="cSWxuscRy3IH5lDIbwuA-13" edge="1">
          <mxGeometry relative="1" as="geometry">
            <mxPoint x="968.3294117647058" y="392" as="sourcePoint" />
            <mxPoint x="1023.6705882352942" y="476" as="targetPoint" />
          </mxGeometry>
        </mxCell>
        <mxCell id="1c7a67bf8fd3230f-39" style="edgeStyle=none;html=1;labelBackgroundColor=none;startFill=0;endArrow=none;endFill=0;strokeWidth=2;fontFamily=Verdana;fontSize=12;entryX=0.5;entryY=0;entryDx=0;entryDy=0;entryPerimeter=0;" parent="1" target="cSWxuscRy3IH5lDIbwuA-13" edge="1">
          <mxGeometry relative="1" as="geometry">
            <mxPoint x="1119.235294117647" y="392" as="sourcePoint" />
            <mxPoint x="1074.764705882353" y="476" as="targetPoint" />
          </mxGeometry>
        </mxCell>
        <mxCell id="1c7a67bf8fd3230f-40" style="edgeStyle=none;html=1;labelBackgroundColor=none;startFill=0;endArrow=none;endFill=0;strokeWidth=2;fontFamily=Verdana;fontSize=12;" parent="1" edge="1">
          <mxGeometry relative="1" as="geometry">
            <mxPoint x="1340" y="366" as="sourcePoint" />
            <mxPoint x="1084" y="502" as="targetPoint" />
          </mxGeometry>
        </mxCell>
        <mxCell id="1c7a67bf8fd3230f-41" style="edgeStyle=none;html=1;labelBackgroundColor=none;startFill=0;endArrow=none;endFill=0;strokeWidth=2;fontFamily=Verdana;fontSize=12;" parent="1" edge="1">
          <mxGeometry relative="1" as="geometry">
            <mxPoint x="1084" y="519" as="sourcePoint" />
            <mxPoint x="1240" y="519" as="targetPoint" />
          </mxGeometry>
        </mxCell>
        <mxCell id="1c7a67bf8fd3230f-45" style="edgeStyle=none;html=1;labelBackgroundColor=none;startFill=0;endArrow=none;endFill=0;strokeWidth=2;fontFamily=Verdana;fontSize=12;" parent="1" edge="1">
          <mxGeometry relative="1" as="geometry">
            <mxPoint x="1020" y="519" as="sourcePoint" />
            <mxPoint x="774" y="519" as="targetPoint" />
          </mxGeometry>
        </mxCell>
        <mxCell id="1c7a67bf8fd3230f-49" style="edgeStyle=none;html=1;labelBackgroundColor=none;startFill=0;endArrow=none;endFill=0;strokeWidth=2;fontFamily=Verdana;fontSize=12;exitX=0.099;exitY=0.92;exitDx=0;exitDy=0;exitPerimeter=0;" parent="1" source="cSWxuscRy3IH5lDIbwuA-13" target="1c7a67bf8fd3230f-46" edge="1">
          <mxGeometry relative="1" as="geometry">
            <mxPoint x="1020" y="551.1203007518798" as="sourcePoint" />
          </mxGeometry>
        </mxCell>
        <mxCell id="1c7a67bf8fd3230f-50" style="edgeStyle=none;html=1;labelBackgroundColor=none;startFill=0;endArrow=none;endFill=0;strokeWidth=2;fontFamily=Verdana;fontSize=12;exitX=0.594;exitY=0.92;exitDx=0;exitDy=0;exitPerimeter=0;" parent="1" source="cSWxuscRy3IH5lDIbwuA-13" target="1c7a67bf8fd3230f-47" edge="1">
          <mxGeometry relative="1" as="geometry">
            <mxPoint x="1084" y="553.3652173913042" as="sourcePoint" />
          </mxGeometry>
        </mxCell>
        <mxCell id="1c7a67bf8fd3230f-64" style="edgeStyle=none;html=1;labelBackgroundColor=none;startFill=0;endArrow=none;endFill=0;strokeWidth=2;fontFamily=Verdana;fontSize=12;" parent="1" edge="1">
          <mxGeometry relative="1" as="geometry">
            <mxPoint x="710" y="515.091603053435" as="sourcePoint" />
            <mxPoint x="591" y="500.5572519083969" as="targetPoint" />
          </mxGeometry>
        </mxCell>
        <mxCell id="1c7a67bf8fd3230f-65" style="edgeStyle=none;html=1;labelBackgroundColor=none;startFill=0;endArrow=none;endFill=0;strokeWidth=2;fontFamily=Verdana;fontSize=12;" parent="1" edge="1">
          <mxGeometry relative="1" as="geometry">
            <mxPoint x="710" y="532.8071065989848" as="sourcePoint" />
            <mxPoint x="590" y="584.5837563451776" as="targetPoint" />
          </mxGeometry>
        </mxCell>
        <mxCell id="1c7a67bf8fd3230f-42" style="edgeStyle=none;html=1;labelBackgroundColor=none;startFill=0;endArrow=none;endFill=0;strokeWidth=2;fontFamily=Verdana;fontSize=12;" parent="1" target="cSWxuscRy3IH5lDIbwuA-19" edge="1">
          <mxGeometry relative="1" as="geometry">
            <mxPoint x="1304" y="519" as="sourcePoint" />
            <mxPoint x="1372" y="519" as="targetPoint" />
          </mxGeometry>
        </mxCell>
        <mxCell id="1c7a67bf8fd3230f-61" style="edgeStyle=none;html=1;labelBackgroundColor=none;startFill=0;endArrow=none;endFill=0;strokeWidth=2;fontFamily=Verdana;fontSize=12;" parent="1" source="1c7a67bf8fd3230f-13" edge="1">
          <mxGeometry relative="1" as="geometry">
            <mxPoint x="1150" y="881.1369863013699" as="targetPoint" />
          </mxGeometry>
        </mxCell>
        <mxCell id="1c7a67bf8fd3230f-13" value="LAN" style="ellipse;shape=cloud;whiteSpace=wrap;html=1;rounded=0;shadow=0;comic=0;strokeWidth=1;fontFamily=Verdana;fontSize=12;" parent="1" vertex="1">
          <mxGeometry x="830" y="696" width="120" height="80" as="geometry" />
        </mxCell>
        <mxCell id="1c7a67bf8fd3230f-15" value="Internet" style="ellipse;shape=cloud;whiteSpace=wrap;html=1;rounded=0;shadow=0;comic=0;strokeWidth=1;fontFamily=Verdana;fontSize=12;" parent="1" vertex="1">
          <mxGeometry x="1118" y="679" width="120" height="80" as="geometry" />
        </mxCell>
        <mxCell id="1c7a67bf8fd3230f-55" style="edgeStyle=none;html=1;labelBackgroundColor=none;startFill=0;endArrow=none;endFill=0;strokeWidth=2;fontFamily=Verdana;fontSize=12;" parent="1" source="1c7a67bf8fd3230f-46" target="1c7a67bf8fd3230f-13" edge="1">
          <mxGeometry relative="1" as="geometry" />
        </mxCell>
        <mxCell id="1c7a67bf8fd3230f-46" value="" style="shape=mxgraph.cisco.routers.router;html=1;dashed=0;fillColor=#036897;strokeColor=#ffffff;strokeWidth=2;verticalLabelPosition=bottom;verticalAlign=top;rounded=0;shadow=0;comic=0;fontFamily=Verdana;fontSize=12;" parent="1" vertex="1">
          <mxGeometry x="880" y="626" width="78" height="53" as="geometry" />
        </mxCell>
        <mxCell id="1c7a67bf8fd3230f-54" style="edgeStyle=none;html=1;labelBackgroundColor=none;startFill=0;endArrow=none;endFill=0;strokeWidth=2;fontFamily=Verdana;fontSize=12;" parent="1" source="1c7a67bf8fd3230f-47" edge="1">
          <mxGeometry relative="1" as="geometry">
            <mxPoint x="1170.9930306359934" y="696.0502641639141" as="targetPoint" />
          </mxGeometry>
        </mxCell>
        <mxCell id="1c7a67bf8fd3230f-47" value="" style="shape=mxgraph.cisco.routers.router;html=1;dashed=0;fillColor=#036897;strokeColor=#ffffff;strokeWidth=2;verticalLabelPosition=bottom;verticalAlign=top;rounded=0;shadow=0;comic=0;fontFamily=Verdana;fontSize=12;" parent="1" vertex="1">
          <mxGeometry x="1128" y="616" width="78" height="53" as="geometry" />
        </mxCell>
        <object label="Web Server(Port 80)" placeholders="1" id="cSWxuscRy3IH5lDIbwuA-2">
          <mxCell style="shape=mxgraph.cisco.servers.www_server;sketch=0;html=1;pointerEvents=1;dashed=0;fillColor=#036897;strokeColor=#ffffff;strokeWidth=2;verticalLabelPosition=bottom;verticalAlign=top;align=center;outlineConnect=0;" vertex="1" parent="1">
            <mxGeometry x="708" y="325" width="66" height="67" as="geometry" />
          </mxCell>
        </object>
        <mxCell id="cSWxuscRy3IH5lDIbwuA-7" value="&lt;div&gt;FTP Server(Port 21)&lt;/div&gt;" style="shape=mxgraph.cisco.servers.fileserver;sketch=0;html=1;pointerEvents=1;dashed=0;fillColor=#036897;strokeColor=#ffffff;strokeWidth=2;verticalLabelPosition=bottom;verticalAlign=top;align=center;outlineConnect=0;" vertex="1" parent="1">
          <mxGeometry x="910" y="300" width="70" height="92" as="geometry" />
        </mxCell>
        <mxCell id="cSWxuscRy3IH5lDIbwuA-8" value="TFTP SERVER(Port 69)" style="shape=mxgraph.cisco.servers.cisco_unified_presence_server;sketch=0;html=1;pointerEvents=1;dashed=0;fillColor=#036897;strokeColor=#ffffff;strokeWidth=2;verticalLabelPosition=bottom;verticalAlign=top;align=center;outlineConnect=0;" vertex="1" parent="1">
          <mxGeometry x="1080" y="300" width="80" height="90" as="geometry" />
        </mxCell>
        <mxCell id="cSWxuscRy3IH5lDIbwuA-13" value="" style="shape=mxgraph.cisco.switches.layer_2_remote_switch;sketch=0;html=1;pointerEvents=1;dashed=0;fillColor=#036897;strokeColor=#ffffff;strokeWidth=2;verticalLabelPosition=bottom;verticalAlign=top;align=center;outlineConnect=0;" vertex="1" parent="1">
          <mxGeometry x="1010" y="494" width="101" height="50" as="geometry" />
        </mxCell>
        <mxCell id="cSWxuscRy3IH5lDIbwuA-14" value="RADIUS Server(Port 1812)" style="verticalLabelPosition=bottom;sketch=0;aspect=fixed;html=1;verticalAlign=top;strokeColor=none;align=center;outlineConnect=0;shape=mxgraph.citrix.radius_server;" vertex="1" parent="1">
          <mxGeometry x="1336.5" y="290" width="75.5" height="91" as="geometry" />
        </mxCell>
        <mxCell id="cSWxuscRy3IH5lDIbwuA-15" value="" style="shape=mxgraph.cisco.switches.layer_2_remote_switch;sketch=0;html=1;pointerEvents=1;dashed=0;fillColor=#036897;strokeColor=#ffffff;strokeWidth=2;verticalLabelPosition=bottom;verticalAlign=top;align=center;outlineConnect=0;" vertex="1" parent="1">
          <mxGeometry x="700" y="494" width="101" height="50" as="geometry" />
        </mxCell>
        <mxCell id="cSWxuscRy3IH5lDIbwuA-16" value="SNMP Server(port 161)" style="shape=mxgraph.cisco.servers.cisco_unified_presence_server;sketch=0;html=1;pointerEvents=1;dashed=0;fillColor=#036897;strokeColor=#ffffff;strokeWidth=2;verticalLabelPosition=bottom;verticalAlign=top;align=center;outlineConnect=0;" vertex="1" parent="1">
          <mxGeometry x="530" y="433" width="74" height="97" as="geometry" />
        </mxCell>
        <mxCell id="cSWxuscRy3IH5lDIbwuA-17" value="TELNET Server(Port 23)" style="shape=mxgraph.cisco.servers.cisco_unified_presence_server;sketch=0;html=1;pointerEvents=1;dashed=0;fillColor=#036897;strokeColor=#ffffff;strokeWidth=2;verticalLabelPosition=bottom;verticalAlign=top;align=center;outlineConnect=0;" vertex="1" parent="1">
          <mxGeometry x="530" y="560" width="80" height="100" as="geometry" />
        </mxCell>
        <mxCell id="cSWxuscRy3IH5lDIbwuA-18" value="" style="shape=mxgraph.cisco.switches.layer_2_remote_switch;sketch=0;html=1;pointerEvents=1;dashed=0;fillColor=#036897;strokeColor=#ffffff;strokeWidth=2;verticalLabelPosition=bottom;verticalAlign=top;align=center;outlineConnect=0;" vertex="1" parent="1">
          <mxGeometry x="1220" y="494" width="101" height="50" as="geometry" />
        </mxCell>
        <mxCell id="cSWxuscRy3IH5lDIbwuA-19" value="SSH Server(Port 22)" style="shape=mxgraph.cisco.servers.communications_server;sketch=0;html=1;pointerEvents=1;dashed=0;fillColor=#036897;strokeColor=#ffffff;strokeWidth=2;verticalLabelPosition=bottom;verticalAlign=top;align=center;outlineConnect=0;" vertex="1" parent="1">
          <mxGeometry x="1470" y="392" width="92" height="84" as="geometry" />
        </mxCell>
        <mxCell id="cSWxuscRy3IH5lDIbwuA-20" value="MySQL Server(Port 3306)" style="shape=mxgraph.cisco.servers.storage_server;sketch=0;html=1;pointerEvents=1;dashed=0;fillColor=#036897;strokeColor=#ffffff;strokeWidth=2;verticalLabelPosition=bottom;verticalAlign=top;align=center;outlineConnect=0;" vertex="1" parent="1">
          <mxGeometry x="1464" y="506" width="86" height="94" as="geometry" />
        </mxCell>
        <mxCell id="cSWxuscRy3IH5lDIbwuA-22" style="edgeStyle=none;html=1;labelBackgroundColor=none;startFill=0;endArrow=none;endFill=0;strokeWidth=2;fontFamily=Verdana;fontSize=12;" edge="1" parent="1" target="cSWxuscRy3IH5lDIbwuA-20">
          <mxGeometry relative="1" as="geometry">
            <mxPoint x="1314" y="529" as="sourcePoint" />
            <mxPoint x="1480" y="462.4433962264151" as="targetPoint" />
            <Array as="points" />
          </mxGeometry>
        </mxCell>
        <mxCell id="cSWxuscRy3IH5lDIbwuA-23" value="Network Admin" style="shape=mxgraph.cisco.computers_and_peripherals.pc;sketch=0;html=1;pointerEvents=1;dashed=0;fillColor=#036897;strokeColor=#ffffff;strokeWidth=2;verticalLabelPosition=bottom;verticalAlign=top;align=center;outlineConnect=0;" vertex="1" parent="1">
          <mxGeometry x="1150" y="850" width="78" height="70" as="geometry" />
        </mxCell>
        <mxCell id="cSWxuscRy3IH5lDIbwuA-24" style="edgeStyle=none;html=1;labelBackgroundColor=none;startFill=0;endArrow=none;endFill=0;strokeWidth=2;fontFamily=Verdana;fontSize=12;entryX=0.5;entryY=0;entryDx=0;entryDy=0;entryPerimeter=0;" edge="1" parent="1" target="cSWxuscRy3IH5lDIbwuA-23">
          <mxGeometry relative="1" as="geometry">
            <mxPoint x="1196.0106525631018" y="749.9953639294223" as="sourcePoint" />
            <mxPoint x="1409.99" y="869.46698630137" as="targetPoint" />
            <Array as="points">
              <mxPoint x="1190" y="850" />
            </Array>
          </mxGeometry>
        </mxCell>
        <mxCell id="cSWxuscRy3IH5lDIbwuA-25" value="Microsoft Terminal Server(Port 3389)" style="image;html=1;image=img/lib/clip_art/computers/Server_Rack_128x128.png" vertex="1" parent="1">
          <mxGeometry x="1321" y="590" width="80" height="102.5" as="geometry" />
        </mxCell>
        <mxCell id="cSWxuscRy3IH5lDIbwuA-26" style="edgeStyle=none;html=1;labelBackgroundColor=none;startFill=0;endArrow=none;endFill=0;strokeWidth=2;fontFamily=Verdana;fontSize=12;" edge="1" parent="1" source="cSWxuscRy3IH5lDIbwuA-25">
          <mxGeometry relative="1" as="geometry">
            <mxPoint x="1120" y="610.56" as="sourcePoint" />
            <mxPoint x="1286" y="544.0033962264151" as="targetPoint" />
          </mxGeometry>
        </mxCell>
      </root>
    </mxGraphModel>
  </diagram>
</mxfile>
